<svg width="26" height="21" viewBox="0 0 26 21" fill="none" xmlns="http://www.w3.org/2000/svg">
<path d="M25.1161 2.84444H23.2959V0.958149C23.2959 0.53024 22.9808 0.163461 22.552 0.0935988C22.4732 0.0848659 20.7055 -0.177119 18.5614 0.215858C16.1811 0.6525 14.2821 1.71791 12.9869 3.32475C11.7092 1.71791 9.81016 0.6525 7.42107 0.215858C5.28576 -0.168386 3.50926 0.0848659 3.43925 0.102332C3.01043 0.163461 2.69539 0.53024 2.69539 0.966882V2.85317H0.875126C0.393807 2.85317 0 3.24615 0 3.72646V20.1267C0 20.4062 0.14002 20.6769 0.367553 20.8341C0.595086 20.9913 0.892629 21.0437 1.16392 20.9476C1.22518 20.9214 7.76237 18.7033 12.6368 20.9214C12.8644 21.0262 13.1269 21.0262 13.3632 20.9214C18.2201 18.712 24.7748 20.9301 24.8361 20.9476C24.9323 20.9825 25.0286 21 25.1249 21C25.2999 21 25.4837 20.9476 25.6324 20.8428C25.86 20.6769 26 20.4149 26 20.1355V3.71772C25.9912 3.22869 25.5974 2.84444 25.1161 2.84444ZM1.7415 18.9478V4.58227H2.69539V16.1707C2.69539 16.424 2.80915 16.6598 3.00168 16.8257C3.19421 16.9916 3.448 17.0615 3.70178 17.0266C3.74554 17.0178 7.53484 16.5026 10.309 18.3976C6.88724 17.8213 3.47425 18.4937 1.7415 18.9478ZM12.1205 17.6204C10.9041 16.5201 9.31134 15.7778 7.42107 15.4372C6.51094 15.2713 5.66207 15.2276 4.98822 15.2276C4.78694 15.2276 4.60316 15.2276 4.43689 15.2363V1.76157C6.11713 1.68297 10.1952 1.86636 12.1205 5.13244V17.6204ZM13.8708 5.13244C15.796 1.88383 19.8829 1.69171 21.5544 1.76157V15.2276C20.8193 15.2014 19.7516 15.2189 18.5702 15.4285C16.6799 15.769 15.0872 16.5113 13.8708 17.6117V5.13244ZM15.691 18.4063C18.4564 16.5113 22.2545 17.0266 22.2982 17.0353C22.552 17.0702 22.8058 17.0004 22.9983 16.8344C23.1908 16.6685 23.3046 16.4327 23.3046 16.1707V4.58227H24.2585V18.9478C22.517 18.4937 19.104 17.8212 15.691 18.4063Z" fill="black"/>
</svg>
