<svg width="28" height="20" viewBox="0 0 28 20" fill="none" xmlns="http://www.w3.org/2000/svg">
<path d="M11.2049 12.628H4.75195L6.61495 7.255L7.93795 3.367H8.01895L9.39595 7.363L11.2049 12.628ZM15.9029 19L9.01795 0.207999H6.96595L0.0809453 19H2.56495L4.07695 14.68H11.8799L13.3919 19H15.9029ZM19.1067 15.058C19.1067 13.789 20.0787 13.087 21.8067 13.087H25.4787V14.653C25.4787 16.651 23.7507 17.137 22.0227 17.137C20.0517 17.137 19.1067 16.327 19.1067 15.058ZM22.3197 5.473C20.4837 5.473 18.8097 6.067 17.8107 7.228L19.2147 8.713C19.8357 7.984 20.6997 7.552 22.4007 7.552C24.5607 7.552 25.4787 8.254 25.4787 9.739V11.251H21.2667C18.4047 11.251 17.0007 13.114 17.0007 15.193C17.0007 17.488 18.7017 19.162 21.7527 19.162C23.5887 19.162 24.9387 18.595 25.4517 17.812L25.4787 17.839V19H27.7197V9.793C27.7197 6.418 25.2357 5.473 22.3197 5.473Z" fill="#8A8A8A"/>
</svg>
