<svg width="13" height="20" viewBox="0 0 13 20" fill="none" xmlns="http://www.w3.org/2000/svg">
<path d="M0.22783 9.4118C-0.121265 9.82225 -0.0619844 10.4395 0.35627 10.7821L11.3758 19.7764C11.794 20.119 12.4231 20.0608 12.7722 19.6504C13.1213 19.2399 13.062 18.6226 12.6437 18.2801L1.62421 9.28576C1.20595 8.94318 0.576924 9.00135 0.22783 9.4118Z" fill="#8A8A8A"/>
<path d="M12.7722 0.349544C13.1213 0.759992 13.062 1.37728 12.6437 1.71986L1.62421 10.7142C1.20595 11.0567 0.576924 10.9986 0.22783 10.5881C-0.121265 10.1777 -0.0619844 9.56039 0.35627 9.21781L11.3758 0.2235C11.794 -0.119079 12.4231 -0.0609045 12.7722 0.349544Z" fill="#8A8A8A"/>
</svg>
