<svg width="19" height="23" viewBox="0 0 19 23" fill="none" xmlns="http://www.w3.org/2000/svg">
<path d="M18.7105 0.75918C18.5175 0.476172 18.2544 0.269531 17.9298 0.134766C17.7237 0.0449219 17.5044 0 17.2763 0H1.72368C1.49561 0 1.2807 0.0449219 1.07018 0.134766C0.741228 0.269531 0.482456 0.476172 0.289474 0.75918C0.0964912 1.04219 0 1.35664 0 1.70254V21.2975C0 21.6434 0.0964912 21.9578 0.289474 22.2408C0.482456 22.5238 0.741228 22.7305 1.07018 22.8652C1.27632 22.9551 1.49561 23 1.72368 23C2.1886 23 2.60088 22.8338 2.95614 22.4969L9.5 16.0506L16.0439 22.4969C16.3904 22.8203 16.8026 22.982 17.2763 22.982C17.5219 22.982 17.7412 22.9416 17.9298 22.8607C18.2544 22.7305 18.5175 22.5193 18.7105 22.2363C18.9035 21.9533 19 21.6389 19 21.293V1.70254C19 1.35664 18.9035 1.04219 18.7105 0.75918ZM17.0965 20.8258L10.8202 14.6535L9.5 13.3598L8.17982 14.6535L1.89912 20.8258V1.94512H17.0965V20.8258Z" fill="#8A8A8A"/>
</svg>
