<svg width="19" height="23" viewBox="0 0 19 23" fill="none" xmlns="http://www.w3.org/2000/svg">
<path d="M19 1.70254L19 21.2975C19 21.6434 18.9035 21.9578 18.7106 22.2408C18.5177 22.5238 18.2589 22.735 17.9301 22.8652C17.7415 22.9461 17.5267 22.9865 17.2767 22.9865C16.8031 22.9865 16.391 22.8248 16.0445 22.5014L9.50219 16.0506L2.95546 22.4969C2.60028 22.8293 2.18809 23 1.72329 23C1.49527 23 1.27602 22.9551 1.06993 22.8652C0.745442 22.735 0.482345 22.5238 0.289407 22.2408C0.0964689 21.9578 0 21.6434 0 21.2975L0 1.70254C0 1.35664 0.0964689 1.04219 0.289407 0.75918C0.48673 0.476172 0.745442 0.269531 1.07431 0.134766C1.28041 0.0449219 1.49965 0 1.72767 0L17.2767 0C17.5047 0 17.724 0.0449219 17.9301 0.134766C18.2546 0.265039 18.5177 0.47168 18.7106 0.75918C18.9035 1.04219 19 1.35664 19 1.70254Z" fill="#E1AB99"/>
</svg>
