<svg width="22" height="23" viewBox="0 0 22 23" fill="none" xmlns="http://www.w3.org/2000/svg">
<path d="M21.9825 15.7487C21.9458 15.5491 21.862 15.3811 21.7205 15.2393C21.4113 14.9295 21.0497 14.8665 20.641 15.0451C19.5458 15.5544 18.4087 15.8117 17.2297 15.8117C15.7519 15.8117 14.3895 15.4494 13.1476 14.7195C11.9004 13.9896 10.9153 13.0025 10.1869 11.7528C9.4585 10.5031 9.09693 9.13791 9.09693 7.66244C9.09693 6.51252 9.32225 5.42035 9.77815 4.38595C10.234 3.35154 10.8891 2.44315 11.7432 1.66604C12.0733 1.35624 12.1467 0.993936 11.9685 0.584375C11.8009 0.174813 11.4969 -0.0194663 11.0567 0.00153682C9.53186 0.0592955 8.08558 0.405848 6.71789 1.03069C5.35021 1.65554 4.17641 2.47466 3.1965 3.49856C2.21135 4.50672 1.43581 5.70915 0.859387 7.10586C0.288209 8.50257 0 9.96229 0 11.4903C0 13.0498 0.30393 14.541 0.911789 15.9587C1.51965 17.3764 2.33711 18.5998 3.36419 19.629C4.39126 20.6581 5.61222 21.4773 7.0323 22.0864C8.44715 22.6955 9.93535 23 11.4917 23C13.724 23 15.7886 22.3909 17.6803 21.178C19.572 19.965 20.9816 18.3425 21.9196 16.3157C21.9982 16.1372 22.0192 15.9482 21.9825 15.7487ZM15.5843 20.1646C14.2952 20.7789 12.9275 21.0887 11.4917 21.0887C10.1974 21.0887 8.95544 20.8314 7.77641 20.3221C6.59213 19.8128 5.57554 19.1302 4.72663 18.2743C3.87248 17.4184 3.19126 16.3998 2.68296 15.2183C2.17467 14.0316 1.9179 12.7925 1.9179 11.4955C1.9179 9.34794 2.55196 7.42616 3.82532 5.74065C5.09868 4.0499 6.73361 2.90522 8.7406 2.30663C7.6978 3.95013 7.17903 5.7354 7.17903 7.65194C7.17903 9.46871 7.62968 11.1542 8.52575 12.7032C9.42182 14.2522 10.6428 15.4756 12.1886 16.3735C13.7345 17.2714 15.4166 17.723 17.2297 17.723C17.7904 17.723 18.3353 17.6757 18.8751 17.5864C17.9738 18.6944 16.8733 19.5502 15.5843 20.1646Z" fill="#8A8A8A"/>
</svg>
