<svg width="20" height="13" viewBox="0 0 20 13" fill="none" xmlns="http://www.w3.org/2000/svg">
<path d="M9.4118 12.7722C9.82225 13.1213 10.4395 13.062 10.7821 12.6437L19.7764 1.62421C20.119 1.20595 20.0608 0.576923 19.6504 0.227829C19.2399 -0.121265 18.6226 -0.061985 18.2801 0.356269L9.28576 11.3758C8.94318 11.794 9.00135 12.4231 9.4118 12.7722Z" fill="#151515"/>
<path d="M0.349787 0.227829C0.760235 -0.121265 1.37752 -0.0619846 1.7201 0.356269L10.7144 11.3758C11.057 11.794 10.9988 12.4231 10.5884 12.7722C10.1779 13.1213 9.56063 13.062 9.21805 12.6437L0.223744 1.62421C-0.118835 1.20595 -0.0606609 0.576924 0.349787 0.227829Z" fill="#151515"/>
</svg>
