<svg width="36" height="36" viewBox="0 0 36 36" fill="none" xmlns="http://www.w3.org/2000/svg">
<rect width="36" height="36" rx="3" fill="#1DA1F2"/>
<path d="M31 10.328C30.3553 11.351 29.4957 12.2328 28.4928 12.9383V13.6085C28.4928 20.3104 23.3352 28 13.8797 28C12.6977 28 11.5874 27.8589 10.4771 27.612C8.86533 27.224 7.36103 26.5891 6 25.7425C6.39398 25.7778 6.82378 25.8131 7.21777 25.8131C8.22063 25.8131 9.18768 25.672 10.1189 25.3898C11.4083 25.037 12.5903 24.4374 13.5931 23.6614C12.1963 23.6261 10.9785 23.0617 10.0473 22.1799C9.47421 21.6155 9.04441 20.9101 8.7937 20.134C9.11605 20.2046 9.4384 20.2399 9.76075 20.2399C9.93983 20.2399 10.1189 20.2399 10.2622 20.2046C10.5487 20.1693 10.8352 20.134 11.1218 20.0635C10.8352 19.9929 10.5845 19.9224 10.3338 19.8519C8.3639 19.1464 7.00287 17.2769 7.00287 15.0899C7.00287 15.0547 7.00287 15.0547 7.00287 15.0194C7.68338 15.4074 8.47135 15.619 9.33095 15.6543C7.96991 14.7372 7.03868 13.1852 7.03868 11.4568C7.03868 10.5397 7.2894 9.65785 7.7192 8.91711C9.15186 10.6455 10.9785 12.0564 13.0917 12.9735C14.7034 13.679 16.4585 14.1023 18.3209 14.2081C18.2493 13.8554 18.1777 13.4674 18.1777 13.0441C18.1777 10.2575 20.4699 8 23.2994 8C24.7679 8 26.1289 8.59965 27.0602 9.5873C28.2421 9.37566 29.3166 8.95238 30.3195 8.35273C29.9255 9.51675 29.1375 10.5397 28.063 11.1393C29.1017 11.0335 30.1046 10.7513 31 10.328Z" fill="white"/>
</svg>
